<svg width="48" height="48" viewBox="0 0 48 48" fill="none" xmlns="http://www.w3.org/2000/svg">
<path fill-rule="evenodd" clip-rule="evenodd" d="M44.9988 24.0019C44.9988 23.6041 44.8407 23.2225 44.5594 22.9412C44.2781 22.6599 43.8966 22.5019 43.4988 22.5019H8.11978L17.5608 13.0639C17.7002 12.9244 17.8109 12.7589 17.8863 12.5766C17.9618 12.3944 18.0007 12.1991 18.0007 12.0019C18.0007 11.8047 17.9618 11.6094 17.8863 11.4271C17.8109 11.2449 17.7002 11.0794 17.5608 10.9399C17.4213 10.8004 17.2557 10.6898 17.0735 10.6143C16.8913 10.5388 16.696 10.5 16.4988 10.5C16.3015 10.5 16.1062 10.5388 15.924 10.6143C15.7418 10.6898 15.5762 10.8004 15.4368 10.9399L3.43678 22.9399C3.29709 23.0792 3.18626 23.2448 3.11064 23.427C3.03502 23.6092 2.99609 23.8046 2.99609 24.0019C2.99609 24.1992 3.03502 24.3946 3.11064 24.5768C3.18626 24.759 3.29709 24.9246 3.43678 25.0639L15.4368 37.0639C15.5762 37.2034 15.7418 37.314 15.924 37.3895C16.1062 37.4649 16.3015 37.5038 16.4988 37.5038C16.696 37.5038 16.8913 37.4649 17.0735 37.3895C17.2557 37.314 17.4213 37.2034 17.5608 37.0639C17.7002 36.9244 17.8109 36.7589 17.8863 36.5766C17.9618 36.3944 18.0007 36.1991 18.0007 36.0019C18.0007 35.8047 17.9618 35.6094 17.8863 35.4271C17.8109 35.2449 17.7002 35.0794 17.5608 34.9399L8.11978 25.5019H43.4988C43.8966 25.5019 44.2781 25.3439 44.5594 25.0626C44.8407 24.7813 44.9988 24.3997 44.9988 24.0019Z" fill="black"/>
</svg>
