<svg width="48" height="48" viewBox="0 0 48 48" fill="none" xmlns="http://www.w3.org/2000/svg">
<path fill-rule="evenodd" clip-rule="evenodd" d="M3 24.0019C3 23.6041 3.15804 23.2225 3.43934 22.9412C3.72064 22.6599 4.10218 22.5019 4.5 22.5019H39.879L30.438 13.0639C30.1563 12.7822 29.9981 12.4002 29.9981 12.0019C29.9981 11.6036 30.1563 11.2216 30.438 10.9399C30.7197 10.6582 31.1017 10.5 31.5 10.5C31.8983 10.5 32.2803 10.6582 32.562 10.9399L44.562 22.9399C44.7017 23.0792 44.8125 23.2448 44.8881 23.427C44.9638 23.6092 45.0027 23.8046 45.0027 24.0019C45.0027 24.1992 44.9638 24.3946 44.8881 24.5768C44.8125 24.759 44.7017 24.9246 44.562 25.0639L32.562 37.0639C32.2803 37.3456 31.8983 37.5038 31.5 37.5038C31.1017 37.5038 30.7197 37.3456 30.438 37.0639C30.1563 36.7822 29.9981 36.4002 29.9981 36.0019C29.9981 35.6036 30.1563 35.2216 30.438 34.9399L39.879 25.5019H4.5C4.10218 25.5019 3.72064 25.3439 3.43934 25.0626C3.15804 24.7813 3 24.3997 3 24.0019V24.0019Z" fill="black"/>
</svg>
