<svg width="52" height="52" viewBox="0 0 52 52" fill="none" xmlns="http://www.w3.org/2000/svg">
<path d="M25.979 4.33203C14.019 4.33203 4.33398 14.0387 4.33398 25.9987C4.33398 37.9587 14.019 47.6654 25.979 47.6654C37.9607 47.6654 47.6673 37.9587 47.6673 25.9987C47.6673 14.0387 37.9607 4.33203 25.979 4.33203ZM26.0007 43.332C16.424 43.332 8.66732 35.5754 8.66732 25.9987C8.66732 16.422 16.424 8.66536 26.0007 8.66536C35.5773 8.66536 43.334 16.422 43.334 25.9987C43.334 35.5754 35.5773 43.332 26.0007 43.332ZM25.524 15.1654H25.394C24.5273 15.1654 23.834 15.8587 23.834 16.7254V26.952C23.834 27.7104 24.224 28.4254 24.8957 28.8154L33.8873 34.2104C34.624 34.6437 35.5773 34.427 36.0107 33.6904C36.1195 33.5149 36.1918 33.3194 36.2235 33.1154C36.2551 32.9114 36.2454 32.7031 36.1948 32.503C36.1443 32.3028 36.054 32.1149 35.9293 31.9504C35.8046 31.7859 35.648 31.6481 35.469 31.5454L27.084 26.562V16.7254C27.084 15.8587 26.3907 15.1654 25.524 15.1654Z" fill="url(#paint0_linear_4144_41611)"/>
<defs>
<linearGradient id="paint0_linear_4144_41611" x1="47.6673" y1="5.25648" x2="-17.221" y2="52.1811" gradientUnits="userSpaceOnUse">
<stop stop-color="#EE9AB2"/>
<stop offset="1" stop-color="#75A4FF"/>
</linearGradient>
</defs>
</svg>
