<svg width="24" height="24" viewBox="0 0 24 24" fill="none" xmlns="http://www.w3.org/2000/svg">
<path d="M19.0003 19.9969H5.0003C4.73508 19.9969 4.48073 20.1023 4.29319 20.2898C4.10565 20.4774 4.0003 20.7317 4.0003 20.9969C4.0003 21.2621 4.10565 21.5165 4.29319 21.704C4.48073 21.8916 4.73508 21.9969 5.0003 21.9969H19.0003C19.2655 21.9969 19.5199 21.8916 19.7074 21.704C19.8949 21.5165 20.0003 21.2621 20.0003 20.9969C20.0003 20.7317 19.8949 20.4774 19.7074 20.2898C19.5199 20.1023 19.2655 19.9969 19.0003 19.9969ZM5.0003 17.9969H5.0903L9.2603 17.6169C9.71709 17.5714 10.1443 17.3702 10.4703 17.0469L19.4703 8.04693C19.8196 7.6779 20.0084 7.18544 19.9953 6.67746C19.9822 6.16949 19.7682 5.68744 19.4003 5.33693L16.6603 2.59693C16.3027 2.26102 15.8341 2.06829 15.3436 2.05538C14.8532 2.04247 14.3751 2.2103 14.0003 2.52693L5.0003 11.5269C4.67706 11.8529 4.4758 12.2801 4.4303 12.7369L4.0003 16.9069C3.98683 17.0534 4.00583 17.201 4.05596 17.3393C4.10608 17.4776 4.1861 17.6031 4.2903 17.7069C4.38374 17.7996 4.49455 17.8729 4.61639 17.9227C4.73823 17.9725 4.86869 17.9977 5.0003 17.9969ZM15.2703 3.99693L18.0003 6.72693L16.0003 8.67693L13.3203 5.99693L15.2703 3.99693ZM6.3703 12.9069L12.0003 7.31693L14.7003 10.0169L9.1003 15.6169L6.1003 15.8969L6.3703 12.9069Z" fill="#2D2D2D"/>
</svg>
