<svg width="32" height="32" viewBox="0 0 32 32" fill="none" xmlns="http://www.w3.org/2000/svg">
<path d="M22.1996 1.23493C20.9112 1.24818 19.5897 1.49978 18.2968 2.01586L18.2381 2.04077L18.1794 2.07101C17.3598 2.48839 16.6128 3.01053 15.9487 3.6293C12.3747 0.538178 6.68484 0.313832 2.79215 3.82319L2.753 3.85877L2.71743 3.89613C-0.697396 7.46295 -0.617423 12.956 1.42951 17.2964L1.4473 17.3302L1.46508 17.3658C3.87586 21.8299 8.37751 25.6231 12.4799 28.7416L12.4905 28.7505L12.4994 28.7577C12.7633 28.9512 13.2171 29.3512 13.7411 29.7449C14.2649 30.1387 14.8568 30.5702 15.7227 30.7358L15.9166 30.7731L16.1123 30.7571C17.0211 30.6787 17.3777 30.3431 17.9748 29.9673C18.5719 29.5914 19.2328 29.1143 19.912 28.5922C21.2507 27.563 22.6359 26.3768 23.548 25.5308C23.5597 25.5199 23.5791 25.5042 23.5907 25.4934C23.5926 25.4918 23.5941 25.4897 23.596 25.4881C25.5174 23.8486 27.4206 21.9584 29.034 19.7352C29.0345 19.7346 29.0353 19.7341 29.0358 19.7335C29.0388 19.7294 29.0416 19.7251 29.0447 19.721C31.6035 16.2759 32.8447 11.6331 31.3643 7.05901L31.3376 6.97717L31.3021 6.90066C29.6399 3.30722 26.0649 1.19522 22.1996 1.23493ZM22.2459 4.04911C25.0308 3.98506 27.4718 5.47626 28.6836 8.02666C29.8033 11.5972 28.8354 15.2352 26.75 18.0364L26.7446 18.0435L26.7393 18.0506C25.2865 20.0554 23.5271 21.8103 21.7033 23.3623L21.6802 23.3837L21.6571 23.405C20.8358 24.1695 19.4457 25.3603 18.1758 26.3366C17.5408 26.8248 16.9321 27.261 16.4592 27.5587C16.2814 27.6706 16.1123 27.747 15.9736 27.806C15.8277 27.7263 15.6426 27.6141 15.4506 27.4698C15.0639 27.1792 14.6522 26.8082 14.2036 26.4771C14.1966 26.4718 14.1892 26.4665 14.1823 26.4611C10.2011 23.433 6.00759 19.7562 3.99108 16.0494C2.35399 12.552 2.42543 8.36586 4.7382 5.90623C7.8829 3.11018 12.5548 3.71805 14.8849 6.58754L16.0198 7.98397L17.1174 6.55909C17.7489 5.73981 18.5025 5.11349 19.4175 4.63791C20.3765 4.26327 21.3293 4.07018 22.2459 4.04911V4.04911Z" fill="black"/>
</svg>
