<svg width="52" height="52" viewBox="0 0 52 52" fill="none" xmlns="http://www.w3.org/2000/svg">
<path d="M7.58398 35.7505C8.44594 35.7505 9.27259 36.0929 9.88208 36.7024C10.4916 37.3118 10.834 38.1385 10.834 39.0005C10.834 39.8624 10.4916 40.6891 9.88208 41.2985C9.27259 41.908 8.44594 42.2505 7.58398 42.2505C6.72203 42.2505 5.89538 41.908 5.28589 41.2985C4.67639 40.6891 4.33398 39.8624 4.33398 39.0005C4.33398 38.1385 4.67639 37.3118 5.28589 36.7024C5.89538 36.0929 6.72203 35.7505 7.58398 35.7505ZM16.2507 36.8338H45.5072C46.0594 36.8344 46.5906 37.0459 46.9921 37.425C47.3937 37.8041 47.6353 38.3222 47.6677 38.8735C47.7001 39.4248 47.5207 39.9676 47.1662 40.3911C46.8118 40.8146 46.309 41.0867 45.7607 41.1519L45.5072 41.1671H16.2507C15.6986 41.166 15.1678 40.9541 14.7667 40.5748C14.3655 40.1956 14.1243 39.6775 14.0922 39.1263C14.0601 38.5752 14.2396 38.0326 14.5941 37.6094C14.9485 37.1861 15.4511 36.9141 15.9993 36.8489L16.2507 36.8338H45.5072H16.2507ZM7.58398 22.7505C8.44594 22.7505 9.27259 23.0929 9.88208 23.7024C10.4916 24.3118 10.834 25.1385 10.834 26.0005C10.834 26.8624 10.4916 27.6891 9.88208 28.2985C9.27259 28.908 8.44594 29.2505 7.58398 29.2505C6.72203 29.2505 5.89538 28.908 5.28589 28.2985C4.67639 27.6891 4.33398 26.8624 4.33398 26.0005C4.33398 25.1385 4.67639 24.3118 5.28589 23.7024C5.89538 23.0929 6.72203 22.7505 7.58398 22.7505ZM16.2507 23.8338H45.5072C46.0594 23.8344 46.5906 24.0459 46.9921 24.425C47.3937 24.8041 47.6353 25.3222 47.6677 25.8735C47.7001 26.4248 47.5207 26.9676 47.1662 27.3911C46.8118 27.8146 46.309 28.0867 45.7607 28.152L45.5072 28.1671H16.2507C15.6986 28.166 15.1678 27.9541 14.7667 27.5748C14.3655 27.1956 14.1243 26.6775 14.0922 26.1264C14.0601 25.5752 14.2396 25.0326 14.5941 24.6094C14.9485 24.1861 15.4511 23.9142 15.9993 23.849L16.2507 23.8338H45.5072H16.2507ZM7.58398 9.76779C8.0177 9.75659 8.44926 9.83234 8.85324 9.99058C9.25721 10.1488 9.62541 10.3863 9.93613 10.6891C10.2468 10.9919 10.4938 11.3539 10.6624 11.7536C10.831 12.1534 10.9179 12.5828 10.9179 13.0167C10.9179 13.4506 10.831 13.88 10.6624 14.2798C10.4938 14.6795 10.2468 15.0415 9.93613 15.3443C9.62541 15.6471 9.25721 15.8846 8.85324 16.0428C8.44926 16.2011 8.0177 16.2768 7.58398 16.2656C6.72203 16.2656 5.89538 15.9232 5.28589 15.3137C4.67639 14.7042 4.33398 13.8776 4.33398 13.0156C4.33398 12.1537 4.67639 11.327 5.28589 10.7175C5.89538 10.108 6.72203 9.76563 7.58398 9.76562V9.76779ZM16.2507 10.8338H45.5072C46.0594 10.8344 46.5906 11.0459 46.9921 11.425C47.3937 11.8041 47.6353 12.3222 47.6677 12.8735C47.7001 13.4248 47.5207 13.9676 47.1662 14.3911C46.8118 14.8146 46.309 15.0867 45.7607 15.152L45.5072 15.1671H16.2507C15.6986 15.166 15.1678 14.9541 14.7667 14.5748C14.3655 14.1956 14.1243 13.6775 14.0922 13.1264C14.0601 12.5752 14.2396 12.0326 14.5941 11.6094C14.9485 11.1861 15.4511 10.9142 15.9993 10.849L16.2507 10.8338H45.5072H16.2507Z" fill="url(#paint0_linear_4144_41631)"/>
<defs>
<linearGradient id="paint0_linear_4144_41631" x1="47.6714" y1="10.4586" x2="-3.51672" y2="59.8427" gradientUnits="userSpaceOnUse">
<stop stop-color="#EE9AB2"/>
<stop offset="1" stop-color="#75A4FF"/>
</linearGradient>
</defs>
</svg>
