<svg width="24" height="24" viewBox="0 0 24 24" fill="none" xmlns="http://www.w3.org/2000/svg">
<path d="M13.6713 22.0023H13.6113C13.3912 21.989 13.1817 21.9034 13.0153 21.7587C12.8489 21.614 12.735 21.4184 12.6913 21.2023L11.0013 13.0023L2.80129 11.3123C2.58476 11.2693 2.38855 11.1558 2.24325 10.9896C2.09794 10.8234 2.01172 10.6138 1.99802 10.3935C1.98432 10.1731 2.04392 9.95446 2.16751 9.77155C2.29111 9.58863 2.47176 9.45175 2.68129 9.38226L18.6813 4.05226C18.8609 3.9781 19.0582 3.95787 19.2491 3.99404C19.44 4.03022 19.6163 4.12122 19.7563 4.25594C19.8963 4.39066 19.994 4.56325 20.0375 4.75262C20.0811 4.94199 20.0685 5.13993 20.0013 5.32226L14.6713 21.3223C14.6017 21.5292 14.4663 21.7078 14.2857 21.8305C14.1052 21.9533 13.8894 22.0136 13.6713 22.0023ZM6.87129 10.1023L12.0613 11.1623C12.2553 11.1997 12.4339 11.2937 12.5745 11.4326C12.7151 11.5714 12.8114 11.7487 12.8513 11.9423L13.9013 17.1323L17.4213 6.58226L6.87129 10.1023Z" fill="black"/>
</svg>
