<svg width="194" height="24" viewBox="0 0 194 24" fill="none" xmlns="http://www.w3.org/2000/svg">
<path d="M0 0.32182H2.38147V20.7896H14.9968V22.8492H0V0.32182Z" fill="#2D2D2D"/>
<path d="M28.3587 23.0423C26.1274 23.0423 24.0999 22.5489 22.2763 21.562C20.4741 20.5536 19.0581 19.1805 18.0282 17.4427C17.0199 15.7048 16.5157 13.7525 16.5157 11.5855C16.5157 9.41861 17.0199 7.46623 18.0282 5.7284C19.0581 3.99057 20.4741 2.6282 22.2763 1.64128C24.0999 0.632913 26.1274 0.128728 28.3587 0.128728C30.59 0.128728 32.596 0.622186 34.3767 1.6091C36.1789 2.59602 37.5949 3.96912 38.6248 5.7284C39.6546 7.46623 40.1695 9.41861 40.1695 11.5855C40.1695 13.7525 39.6546 15.7156 38.6248 17.4748C37.5949 19.2127 36.1789 20.575 34.3767 21.562C32.596 22.5489 30.59 23.0423 28.3587 23.0423ZM28.3587 20.9183C30.1394 20.9183 31.7485 20.5214 33.186 19.7276C34.6235 18.9123 35.7498 17.7967 36.5651 16.3807C37.3804 14.9432 37.788 13.3448 37.788 11.5855C37.788 9.82625 37.3804 8.2386 36.5651 6.82259C35.7498 5.38513 34.6235 4.26948 33.186 3.47566C31.7485 2.66038 30.1394 2.25274 28.3587 2.25274C26.5779 2.25274 24.9581 2.66038 23.4992 3.47566C22.0617 4.26948 20.9246 5.38513 20.0879 6.82259C19.2726 8.2386 18.865 9.82625 18.865 11.5855C18.865 13.3448 19.2726 14.9432 20.0879 16.3807C20.9246 17.7967 22.0617 18.9123 23.4992 19.7276C24.9581 20.5214 26.5779 20.9183 28.3587 20.9183Z" fill="#2D2D2D"/>
<path d="M55.3552 23.0423C53.1239 23.0423 51.0964 22.5489 49.2727 21.562C47.4705 20.5536 46.0545 19.1805 45.0247 17.4427C44.0163 15.7048 43.5122 13.7525 43.5122 11.5855C43.5122 9.41861 44.0163 7.46623 45.0247 5.7284C46.0545 3.99057 47.4705 2.6282 49.2727 1.64128C51.0964 0.632913 53.1239 0.128728 55.3552 0.128728C57.5864 0.128728 59.5925 0.622186 61.3732 1.6091C63.1754 2.59602 64.5914 3.96912 65.6212 5.7284C66.6511 7.46623 67.166 9.41861 67.166 11.5855C67.166 13.7525 66.6511 15.7156 65.6212 17.4748C64.5914 19.2127 63.1754 20.575 61.3732 21.562C59.5925 22.5489 57.5864 23.0423 55.3552 23.0423ZM55.3552 20.9183C57.1359 20.9183 58.745 20.5214 60.1825 19.7276C61.6199 18.9123 62.7463 17.7967 63.5616 16.3807C64.3769 14.9432 64.7845 13.3448 64.7845 11.5855C64.7845 9.82625 64.3769 8.2386 63.5616 6.82259C62.7463 5.38513 61.6199 4.26948 60.1825 3.47566C58.745 2.66038 57.1359 2.25274 55.3552 2.25274C53.5744 2.25274 51.9546 2.66038 50.4957 3.47566C49.0582 4.26948 47.9211 5.38513 47.0844 6.82259C46.2691 8.2386 45.8614 9.82625 45.8614 11.5855C45.8614 13.3448 46.2691 14.9432 47.0844 16.3807C47.9211 17.7967 49.0582 18.9123 50.4957 19.7276C51.9546 20.5214 53.5744 20.9183 55.3552 20.9183Z" fill="#2D2D2D"/>
<path d="M79.4874 12.2614L74.8854 16.9277V22.8492H72.5039V0.32182H74.8854V13.9348L88.1122 0.32182H90.8477L81.0965 10.5235L91.5235 22.8492H88.6915L79.4874 12.2614Z" fill="#2D2D2D"/>
<path d="M110.702 11.135C111.946 11.5426 112.933 12.2292 113.663 13.1946C114.392 14.1386 114.757 15.3186 114.757 16.7347C114.757 18.687 114.006 20.1996 112.504 21.2723C111.002 22.3236 108.814 22.8492 105.939 22.8492H94.7397V0.32182H105.295C107.956 0.32182 110.005 0.84746 111.442 1.89874C112.88 2.92856 113.598 4.3553 113.598 6.17895C113.598 7.29459 113.341 8.28151 112.826 9.1397C112.311 9.99788 111.603 10.663 110.702 11.135ZM98.9234 3.60439V9.81552H104.845C106.304 9.81552 107.419 9.55806 108.192 9.04315C108.986 8.50678 109.383 7.73442 109.383 6.72605C109.383 5.69622 108.986 4.92385 108.192 4.40894C107.419 3.87257 106.304 3.60439 104.845 3.60439H98.9234ZM105.682 19.5667C108.921 19.5667 110.541 18.4832 110.541 16.3163C110.541 14.1494 108.921 13.0659 105.682 13.0659H98.9234V19.5667H105.682Z" fill="#2D2D2D"/>
<path d="M129.745 23.1711C127.45 23.1711 125.379 22.6776 123.534 21.6907C121.689 20.6823 120.241 19.2985 119.19 17.5392C118.138 15.7585 117.613 13.7739 117.613 11.5855C117.613 9.39715 118.138 7.42332 119.19 5.66404C120.241 3.8833 121.689 2.49947 123.534 1.51255C125.379 0.504185 127.45 0 129.745 0C132.041 0 134.112 0.504185 135.957 1.51255C137.802 2.49947 139.25 3.87257 140.301 5.63186C141.352 7.39114 141.878 9.3757 141.878 11.5855C141.878 13.7954 141.352 15.7799 140.301 17.5392C139.25 19.2985 137.802 20.6823 135.957 21.6907C134.112 22.6776 132.041 23.1711 129.745 23.1711ZM129.745 19.5023C131.247 19.5023 132.599 19.1698 133.8 18.5047C135.002 17.8181 135.946 16.8741 136.632 15.6727C137.319 14.4497 137.662 13.0874 137.662 11.5855C137.662 10.0837 137.319 8.73206 136.632 7.5306C135.946 6.30768 135.002 5.36367 133.8 4.69858C132.599 4.01203 131.247 3.66875 129.745 3.66875C128.244 3.66875 126.892 4.01203 125.691 4.69858C124.489 5.36367 123.545 6.30768 122.859 7.5306C122.172 8.73206 121.829 10.0837 121.829 11.5855C121.829 13.0874 122.172 14.4497 122.859 15.6727C123.545 16.8741 124.489 17.8181 125.691 18.5047C126.892 19.1698 128.244 19.5023 129.745 19.5023Z" fill="#2D2D2D"/>
<path d="M156.836 23.1711C154.541 23.1711 152.47 22.6776 150.625 21.6907C148.78 20.6823 147.332 19.2985 146.281 17.5392C145.229 15.7585 144.704 13.7739 144.704 11.5855C144.704 9.39715 145.229 7.42332 146.281 5.66404C147.332 3.8833 148.78 2.49947 150.625 1.51255C152.47 0.504185 154.541 0 156.836 0C159.132 0 161.202 0.504185 163.047 1.51255C164.892 2.49947 166.341 3.87257 167.392 5.63186C168.443 7.39114 168.969 9.3757 168.969 11.5855C168.969 13.7954 168.443 15.7799 167.392 17.5392C166.341 19.2985 164.892 20.6823 163.047 21.6907C161.202 22.6776 159.132 23.1711 156.836 23.1711ZM156.836 19.5023C158.338 19.5023 159.69 19.1698 160.891 18.5047C162.093 17.8181 163.037 16.8741 163.723 15.6727C164.41 14.4497 164.753 13.0874 164.753 11.5855C164.753 10.0837 164.41 8.73206 163.723 7.5306C163.037 6.30768 162.093 5.36367 160.891 4.69858C159.69 4.01203 158.338 3.66875 156.836 3.66875C155.334 3.66875 153.983 4.01203 152.781 4.69858C151.58 5.36367 150.636 6.30768 149.949 7.5306C149.263 8.73206 148.919 10.0837 148.919 11.5855C148.919 13.0874 149.263 14.4497 149.949 15.6727C150.636 16.8741 151.58 17.8181 152.781 18.5047C153.983 19.1698 155.334 19.5023 156.836 19.5023Z" fill="#2D2D2D"/>
<path d="M181.159 13.4199L177.587 17.0887V22.8492H173.403V0.32182H177.587V11.8752L188.722 0.32182H193.421L183.959 10.3948L194 22.8492H189.108L181.159 13.4199Z" fill="#2D2D2D"/>
</svg>
