<svg width="40" height="40" viewBox="0 0 40 40" fill="none" xmlns="http://www.w3.org/2000/svg">
<path d="M23.3333 28.332C23.3333 27.832 23.5 27.4987 23.8333 27.1654L32.1667 18.832C32.8333 18.1654 33.8333 18.1654 34.5 18.832C35.1667 19.4987 35.1667 20.4987 34.5 21.1654L26.1667 29.4987C25.5 30.1654 24.5 30.1654 23.8333 29.4987C23.5 29.1654 23.3333 28.832 23.3333 28.332V28.332Z" fill="#525050"/>
<path d="M23.3333 11.6667C23.3333 11.1667 23.5 10.8333 23.8333 10.5C24.5 9.83333 25.5 9.83333 26.1667 10.5L34.5 18.8333C35.1667 19.5 35.1667 20.5 34.5 21.1667C33.8333 21.8333 32.8333 21.8333 32.1667 21.1667L23.8333 12.8333C23.5 12.5 23.3333 12.1667 23.3333 11.6667V11.6667Z" fill="#525050"/>
<path d="M5.00001 19.9987C5.00001 18.9987 5.66668 18.332 6.66668 18.332L33.3333 18.332C34.3333 18.332 35 18.9987 35 19.9987C35 20.9987 34.3333 21.6654 33.3333 21.6654L6.66667 21.6654C5.66667 21.6654 5.00001 20.9987 5.00001 19.9987Z" fill="#525050"/>
</svg>
