<svg width="32" height="32" viewBox="0 0 32 32" fill="none" xmlns="http://www.w3.org/2000/svg">
<path d="M13.6349 5.51027C13.8155 5.06405 14.1252 4.6819 14.5243 4.41283C14.9234 4.14375 15.3938 4 15.8752 4C16.3565 4 16.8269 4.14375 17.2261 4.41283C17.6252 4.6819 17.9349 5.06405 18.1154 5.51027C19.9023 6.00168 21.4784 7.06607 22.6017 8.53996C23.725 10.0139 24.3334 11.8158 24.3335 13.6689V19.3445L26.5472 22.665C26.6686 22.847 26.7383 23.0585 26.7489 23.277C26.7596 23.4955 26.7107 23.7128 26.6074 23.9057C26.5042 24.0985 26.3506 24.2598 26.1629 24.3722C25.9753 24.4846 25.7606 24.544 25.5419 24.5439H20.0621C19.9166 25.5506 19.4133 26.4712 18.6443 27.1369C17.8754 27.8027 16.8923 28.1692 15.8752 28.1692C14.8581 28.1692 13.875 27.8027 13.106 27.1369C12.3371 26.4712 11.8338 25.5506 11.6883 24.5439H6.20851C5.98975 24.544 5.77509 24.4846 5.58742 24.3722C5.39975 24.2598 5.24612 24.0985 5.14292 23.9057C5.03971 23.7128 4.99081 23.4955 5.00142 23.277C5.01204 23.0585 5.08177 22.847 5.20318 22.665L7.41685 19.3445V13.6689C7.41685 9.77327 10.051 6.49144 13.6349 5.51027ZM14.1666 24.5439C14.2914 24.8976 14.5228 25.2038 14.8289 25.4203C15.135 25.6369 15.5008 25.7532 15.8758 25.7532C16.2508 25.7532 16.6165 25.6369 16.9227 25.4203C17.2288 25.2038 17.4602 24.8976 17.585 24.5439H14.1654H14.1666ZM15.8752 7.62727C14.2728 7.62727 12.7361 8.2638 11.6031 9.39683C10.47 10.5299 9.83351 12.0666 9.83351 13.6689V19.7106C9.83357 19.9493 9.76293 20.1826 9.63051 20.3812L8.46689 22.1273H23.2823L22.1186 20.3812C21.9867 20.1825 21.9164 19.9492 21.9168 19.7106V13.6689C21.9168 12.0666 21.2803 10.5299 20.1473 9.39683C19.0143 8.2638 17.4775 7.62727 15.8752 7.62727Z" fill="#2D2D2D"/>
</svg>
