<svg width="16" height="16" viewBox="0 0 16 16" fill="none" xmlns="http://www.w3.org/2000/svg">
<path d="M6.923 1.37967C7.61624 1.11303 8.38376 1.11303 9.077 1.37967L14.039 3.28767C14.3219 3.3966 14.5651 3.58868 14.7367 3.8386C14.9082 4.08851 15 4.38454 15 4.68767V11.3137C15 11.6168 14.9082 11.9128 14.7367 12.1628C14.5651 12.4127 14.3219 12.6047 14.039 12.7137L9.077 14.6227C8.38376 14.8893 7.61624 14.8893 6.923 14.6227L1.962 12.7137C1.67893 12.6049 1.43547 12.4129 1.26373 12.163C1.09199 11.913 1.00004 11.6169 1 11.3137V4.68767C1.00004 4.38443 1.09199 4.08831 1.26373 3.83838C1.43547 3.58845 1.67893 3.39644 1.962 3.28767L6.923 1.37967V1.37967ZM8.718 2.31267C8.25584 2.13491 7.74416 2.13491 7.282 2.31267L5.898 2.84567L11.488 4.96167L13.436 4.12767L8.718 2.31167V2.31267ZM14 4.97268L8.5 7.33167V13.7597C8.574 13.7407 8.646 13.7177 8.718 13.6897L13.68 11.7817C13.7743 11.7453 13.8553 11.6812 13.9125 11.5978C13.9696 11.5145 14.0001 11.4157 14 11.3147V4.97467V4.97268ZM7.5 13.7587V7.33167L2 4.97368V11.3137C1.99989 11.4147 2.03042 11.5135 2.08754 11.5968C2.14467 11.6802 2.22571 11.7443 2.32 11.7807L7.282 13.6887C7.354 13.7167 7.426 13.7397 7.5 13.7587V13.7587ZM2.564 4.12767L8 6.45767L10.164 5.52967L4.497 3.38367L2.564 4.12767Z" fill="black"/>
</svg>
