<svg width="40" height="40" viewBox="0 0 40 40" fill="none" xmlns="http://www.w3.org/2000/svg">
<path d="M16.6667 11.668C16.6667 12.168 16.5 12.5013 16.1667 12.8346L7.83333 21.168C7.16667 21.8346 6.16667 21.8346 5.5 21.168C4.83333 20.5013 4.83333 19.5013 5.5 18.8346L13.8333 10.5013C14.5 9.83463 15.5 9.83463 16.1667 10.5013C16.5 10.8346 16.6667 11.168 16.6667 11.668V11.668Z" fill="#525050"/>
<path d="M16.6667 28.3333C16.6667 28.8333 16.5 29.1667 16.1667 29.5C15.5 30.1667 14.5 30.1667 13.8333 29.5L5.5 21.1667C4.83333 20.5 4.83333 19.5 5.5 18.8333C6.16667 18.1667 7.16667 18.1667 7.83333 18.8333L16.1667 27.1667C16.5 27.5 16.6667 27.8333 16.6667 28.3333V28.3333Z" fill="#525050"/>
<path d="M35 20.0013C35 21.0013 34.3333 21.668 33.3333 21.668L6.66667 21.668C5.66667 21.668 5 21.0013 5 20.0013C5 19.0013 5.66667 18.3346 6.66667 18.3346L33.3333 18.3346C34.3333 18.3346 35 19.0013 35 20.0013Z" fill="#525050"/>
</svg>
