<svg width="26" height="26" viewBox="0 0 26 26" fill="none" xmlns="http://www.w3.org/2000/svg">
<path fill-rule="evenodd" clip-rule="evenodd" d="M17.3307 9.75521C17.3307 10.9045 16.8742 12.0067 16.0615 12.8193C15.2489 13.632 14.1467 14.0885 12.9974 14.0885C11.8481 14.0885 10.7459 13.632 9.93327 12.8193C9.12061 12.0067 8.66406 10.9045 8.66406 9.75521C8.66406 8.60594 9.12061 7.50374 9.93327 6.69108C10.7459 5.87842 11.8481 5.42188 12.9974 5.42188C14.1467 5.42188 15.2489 5.87842 16.0615 6.69108C16.8742 7.50374 17.3307 8.60594 17.3307 9.75521ZM15.1641 9.75521C15.1641 10.3298 14.9358 10.8809 14.5295 11.2873C14.1231 11.6936 13.572 11.9219 12.9974 11.9219C12.4228 11.9219 11.8717 11.6936 11.4653 11.2873C11.059 10.8809 10.8307 10.3298 10.8307 9.75521C10.8307 9.18057 11.059 8.62947 11.4653 8.22314C11.8717 7.81681 12.4228 7.58854 12.9974 7.58854C13.572 7.58854 14.1231 7.81681 14.5295 8.22314C14.9358 8.62947 15.1641 9.18057 15.1641 9.75521Z" fill="#2D2D2D"/>
<path fill-rule="evenodd" clip-rule="evenodd" d="M12.9987 1.08594C6.41745 1.08594 1.08203 6.42135 1.08203 13.0026C1.08203 19.5839 6.41745 24.9193 12.9987 24.9193C19.5799 24.9193 24.9154 19.5839 24.9154 13.0026C24.9154 6.42135 19.5799 1.08594 12.9987 1.08594ZM3.2487 13.0026C3.2487 15.2668 4.02111 17.3511 5.3157 19.0064C6.22486 17.8125 7.39776 16.8449 8.74275 16.1793C10.0877 15.5136 11.5684 15.168 13.0691 15.1693C14.5504 15.1679 16.0124 15.5046 17.3439 16.1538C18.6753 16.803 19.841 17.7475 20.7521 18.9154C21.6908 17.6843 22.3228 16.2474 22.5958 14.7236C22.8689 13.1997 22.7752 11.6328 22.3224 10.1523C21.8696 8.67191 21.0709 7.32057 19.9921 6.21014C18.9134 5.09972 17.5858 4.26212 16.1191 3.76665C14.6524 3.27119 13.0888 3.13211 11.5577 3.36091C10.0266 3.58971 8.57197 4.17982 7.3142 5.08241C6.05642 5.985 5.03166 7.17413 4.3247 8.5514C3.61773 9.92867 3.24889 11.4545 3.2487 13.0026ZM12.9987 22.7526C10.7605 22.756 8.58982 21.986 6.85403 20.5729C7.55271 19.5727 8.48265 18.7561 9.56474 18.1925C10.6468 17.6289 11.8491 17.3351 13.0691 17.3359C14.274 17.335 15.4616 17.6215 16.5335 18.1716C17.6054 18.7218 18.5306 19.5198 19.2322 20.4993C17.4829 21.9582 15.2765 22.7558 12.9987 22.7526Z" fill="#2D2D2D"/>
</svg>
