<svg width="32" height="32" viewBox="0 0 32 32" fill="none" xmlns="http://www.w3.org/2000/svg">
<path d="M15.9993 2.66406C8.62601 2.66406 2.66602 8.62406 2.66602 15.9974C2.66602 23.3707 8.62601 29.3307 15.9993 29.3307C23.3727 29.3307 29.3327 23.3707 29.3327 15.9974C29.3327 8.62406 23.3727 2.66406 15.9993 2.66406ZM21.7327 21.7307C21.6093 21.8543 21.4628 21.9524 21.3015 22.0193C21.1402 22.0862 20.9673 22.1207 20.7927 22.1207C20.6181 22.1207 20.4451 22.0862 20.2838 22.0193C20.1226 21.9524 19.976 21.8543 19.8527 21.7307L15.9993 17.8774L12.146 21.7307C11.8967 21.98 11.5586 22.1201 11.206 22.1201C10.8534 22.1201 10.5153 21.98 10.266 21.7307C10.0167 21.4814 9.87665 21.1433 9.87665 20.7907C9.87665 20.6162 9.91104 20.4433 9.97785 20.282C10.0447 20.1207 10.1426 19.9742 10.266 19.8507L14.1193 15.9974L10.266 12.1441C10.0167 11.8948 9.87665 11.5566 9.87665 11.2041C9.87665 10.8515 10.0167 10.5134 10.266 10.2641C10.5153 10.0148 10.8534 9.8747 11.206 9.8747C11.5586 9.8747 11.8967 10.0148 12.146 10.2641L15.9993 14.1174L19.8527 10.2641C19.9761 10.1406 20.1227 10.0427 20.284 9.97589C20.4452 9.90909 20.6181 9.8747 20.7927 9.8747C20.9673 9.8747 21.1401 9.90909 21.3014 9.97589C21.4627 10.0427 21.6092 10.1406 21.7327 10.2641C21.8561 10.3875 21.954 10.5341 22.0208 10.6953C22.0877 10.8566 22.122 11.0295 22.122 11.2041C22.122 11.3786 22.0877 11.5515 22.0208 11.7128C21.954 11.8741 21.8561 12.0206 21.7327 12.1441L17.8793 15.9974L21.7327 19.8507C22.2393 20.3574 22.2393 21.2107 21.7327 21.7307Z" fill="#C21857"/>
</svg>
