<svg width="32" height="32" viewBox="0 0 32 32" fill="none" xmlns="http://www.w3.org/2000/svg">
<path d="M27.6138 5.20307C27.6138 5.20307 30.2038 4.2075 29.9871 6.62512C29.9158 7.62069 29.2685 11.1055 28.7645 14.8742L27.0378 26.039C27.0378 26.039 26.8938 27.6746 25.5985 27.9592C24.3039 28.2431 22.3612 26.9636 22.0012 26.6791C21.7132 26.4655 16.6053 23.2652 14.8067 21.7012C14.3027 21.2741 13.7267 20.4211 14.8787 19.4256L22.4326 12.314C23.2959 11.461 24.1592 9.46988 20.5619 11.8875L10.4887 18.6429C10.4887 18.6429 9.33742 19.3546 7.17945 18.7145L2.50219 17.2918C2.50219 17.2918 0.775547 16.2253 3.7255 15.1587C10.9207 11.8165 19.7706 8.40334 27.6125 5.20307H27.6138Z" fill="url(#paint0_linear_4154_26831)"/>
<defs>
<linearGradient id="paint0_linear_4154_26831" x1="30" y1="5.49067" x2="-5.97331" y2="37.1605" gradientUnits="userSpaceOnUse">
<stop stop-color="#EE9AB2"/>
<stop offset="1" stop-color="#75A4FF"/>
</linearGradient>
</defs>
</svg>
