<svg width="32" height="32" viewBox="0 0 32 32" fill="none" xmlns="http://www.w3.org/2000/svg">
<path fill-rule="evenodd" clip-rule="evenodd" d="M31.266 8.28657C31.4873 7.54557 31.266 7 30.206 7H26.7061C25.8155 7 25.4048 7.47093 25.1821 7.99071C25.1821 7.99071 23.4022 12.3281 20.8809 15.1456C20.0649 15.9626 19.6943 16.2218 19.2489 16.2218C19.0263 16.2218 18.6916 15.9626 18.6916 15.2202V8.28657C18.6916 7.39629 18.4463 7 17.705 7H12.2011C11.6451 7 11.3104 7.41257 11.3104 7.80479C11.3104 8.64757 12.5717 8.843 12.7011 11.2153V16.3697C12.7011 17.5002 12.4971 17.7051 12.0517 17.7051C10.8651 17.7051 7.9785 13.3474 6.2652 8.36121C5.93321 7.39086 5.59722 7 4.70257 7H1.19997C0.199996 7 0 7.47093 0 7.99071C0 8.91629 1.18664 13.5143 5.52655 19.5956C8.41982 23.7485 12.4931 26 16.2037 26C18.4289 26 18.7036 25.5006 18.7036 24.6388V21.4997C18.7036 20.4995 18.9143 20.3 19.6196 20.3C20.1396 20.3 21.0289 20.5606 23.1062 22.5624C25.4795 24.936 25.8701 26 27.2061 26H30.706C31.706 26 32.2073 25.5006 31.9193 24.5126C31.602 23.53 30.4687 22.1036 28.9661 20.4113C28.1501 19.4477 26.9261 18.4095 26.5541 17.8897C26.0355 17.2234 26.1835 16.9261 26.5541 16.3331C26.5541 16.3331 30.8207 10.3264 31.2647 8.28657H31.266Z" fill="url(#paint0_linear_4154_26834)"/>
<defs>
<linearGradient id="paint0_linear_4154_26834" x1="32" y1="7.40533" x2="2.61444" y2="43.1956" gradientUnits="userSpaceOnUse">
<stop stop-color="#EE9AB2"/>
<stop offset="1" stop-color="#75A4FF"/>
</linearGradient>
</defs>
</svg>
