<svg width="32" height="32" viewBox="0 0 32 32" fill="none" xmlns="http://www.w3.org/2000/svg">
<path d="M19.6633 4H16.1703C12.7383 4 10.0003 6.72 10.0003 12C10.0003 15.168 11.2373 17.504 13.7493 18.656L9.06125 27.488C8.90825 27.777 9.06125 28 9.30625 28H11.4813C11.6653 28 11.7883 27.936 11.8493 27.777L16.2503 19H17.5003L17.4923 27.777C17.4923 27.873 17.5843 28 17.7063 28H19.7553C19.9393 28 20.0003 27.904 20.0003 27.745V4.32C20.0003 4.096 19.8773 4 19.6633 4ZM17.5003 17H16.0003C14.5003 17 12.5003 15.84 12.5003 12C12.5003 7.999 14.1313 6 16.0003 6H17.5003V17Z" fill="black"/>
</svg>
