<svg width="32" height="32" viewBox="0 0 32 32" fill="none" xmlns="http://www.w3.org/2000/svg">
<path d="M31.3299 8.2949C31.1488 7.65904 30.7959 7.08336 30.3087 6.62906C29.8079 6.16079 29.194 5.82583 28.525 5.65579C26.0213 5.0065 15.9907 5.0065 15.9907 5.0065C11.809 4.95969 7.62837 5.16558 3.47236 5.623C2.80337 5.8056 2.19061 6.14805 1.6886 6.61988C1.19533 7.08684 0.838044 7.66267 0.651402 8.29359C0.203053 10.67 -0.0147857 13.083 0.0008228 15.5C-0.015175 17.9148 0.202129 20.327 0.651402 22.7064C0.834044 23.3347 1.19 23.9079 1.6846 24.3709C2.1792 24.834 2.79511 25.1684 3.47236 25.3455C6.00935 25.9935 15.9907 25.9935 15.9907 25.9935C20.1777 26.0404 24.3636 25.8345 28.525 25.377C29.194 25.2069 29.8079 24.872 30.3087 24.4037C30.7957 23.9495 31.1482 23.3738 31.3286 22.7379C31.7887 20.3624 32.0124 17.9484 31.9965 15.5302C32.0311 13.1017 31.8077 10.6764 31.3299 8.29359V8.2949ZM12.8018 19.9912V11.0101L21.1473 15.5013L12.8018 19.9912Z" fill="url(#paint0_linear_4154_26836)"/>
<defs>
<linearGradient id="paint0_linear_4154_26836" x1="32" y1="5.448" x2="-0.956713" y2="41.7649" gradientUnits="userSpaceOnUse">
<stop stop-color="#EE9AB2"/>
<stop offset="1" stop-color="#75A4FF"/>
</linearGradient>
</defs>
</svg>
